<svg width="44" height="44" viewBox="0 0 44 44" fill="none" xmlns="http://www.w3.org/2000/svg">
<g id="ei:arrow-right">
<path id="Vector" d="M22 36.96C13.728 36.96 7.03998 30.272 7.03998 22C7.03998 13.728 13.728 7.03999 22 7.03999C30.272 7.03999 36.96 13.728 36.96 22C36.96 30.272 30.272 36.96 22 36.96ZM22 8.79999C14.696 8.79999 8.79998 14.696 8.79998 22C8.79998 29.304 14.696 35.2 22 35.2C29.304 35.2 35.2 29.304 35.2 22C35.2 14.696 29.304 8.79999 22 8.79999Z" fill="#3D5A80"/>
<path id="Vector_2" d="M21.736 30.536L20.504 29.304L27.808 22L20.504 14.696L21.736 13.464L30.272 22L21.736 30.536Z" fill="#3D5A80"/>
<path id="Vector_3" d="M14.08 21.12H29.04V22.88H14.08V21.12Z" fill="#3D5A80"/>
</g>
</svg>
